<svg width="256" height="57" viewBox="0 0 256 57" fill="none" xmlns="http://www.w3.org/2000/svg">
<g filter="url(#filter0_d_5408_280)">
<rect x="5" y="5" width="246" height="44" rx="22" fill="#D9D9D9"/>
<rect x="2.5" y="2.5" width="251" height="49" rx="24.5" stroke="url(#paint0_linear_5408_280)" stroke-width="5"/>
</g>
<rect x="5" y="5" width="246" height="44" rx="22" fill="url(#paint1_linear_5408_280)"/>
<rect x="5.5" y="5.5" width="245" height="43" rx="21.5" stroke="url(#paint2_linear_5408_280)"/>
<rect x="4" y="4" width="248" height="46" rx="23" stroke="url(#paint3_linear_5408_280)" stroke-width="2"/>
<g style="mix-blend-mode:overlay">
<rect x="18" y="7.20006" width="220" height="24.2" rx="12.1" fill="url(#paint4_linear_5408_280)"/>
</g>
<g style="mix-blend-mode:overlay">
<rect width="206" height="6" rx="3" transform="matrix(1 0 0 -1 25 47)" fill="url(#paint5_linear_5408_280)"/>
</g>
<path d="M109.544 20.49C110.684 20.49 111.758 20.754 112.766 21.282C113.318 21.582 113.774 22.014 114.134 22.578C114.494 23.142 114.71 23.802 114.782 24.558H111.722C111.542 23.526 110.882 23.01 109.742 23.01C109.202 23.01 108.776 23.118 108.464 23.334C108.152 23.55 107.996 23.85 107.996 24.234C107.996 24.546 108.104 24.792 108.32 24.972C108.548 25.14 108.908 25.278 109.4 25.386L111.11 25.782C112.37 26.07 113.3 26.484 113.9 27.024C114.5 27.552 114.8 28.302 114.8 29.274C114.8 30.498 114.338 31.47 113.414 32.19C112.49 32.898 111.26 33.252 109.724 33.252C108.224 33.252 106.964 32.892 105.944 32.172C104.9 31.428 104.318 30.348 104.198 28.932H107.24C107.336 29.472 107.606 29.898 108.05 30.21C108.506 30.51 109.094 30.66 109.814 30.66C110.378 30.66 110.804 30.564 111.092 30.372C111.392 30.18 111.542 29.916 111.542 29.58C111.542 29.076 111.11 28.728 110.246 28.536L108.23 28.086C107.018 27.81 106.124 27.384 105.548 26.808C104.972 26.232 104.684 25.458 104.684 24.486C104.684 23.274 105.128 22.308 106.016 21.588C106.904 20.856 108.08 20.49 109.544 20.49ZM125.708 24.27V33H122.792V32.514C122.096 32.958 121.298 33.18 120.398 33.18C119.198 33.18 118.178 32.742 117.338 31.866C116.486 30.978 116.06 29.898 116.06 28.626C116.06 27.354 116.486 26.274 117.338 25.386C118.178 24.51 119.198 24.072 120.398 24.072C121.298 24.072 122.096 24.294 122.792 24.738V24.27H125.708ZM120.992 30.786C121.7 30.786 122.3 30.516 122.792 29.976V27.258C122.3 26.718 121.7 26.448 120.992 26.448C120.404 26.448 119.912 26.658 119.516 27.078C119.12 27.498 118.922 28.014 118.922 28.626C118.922 29.238 119.12 29.754 119.516 30.174C119.912 30.582 120.404 30.786 120.992 30.786ZM130.622 20.22V33H127.688V20.22H130.622ZM137.578 22.686L136.894 22.29C136.414 22.014 136.174 22.158 136.174 22.722H134.032C134.032 22.098 134.146 21.576 134.374 21.156C134.614 20.736 134.908 20.448 135.256 20.292C135.616 20.124 135.988 20.046 136.372 20.058C136.756 20.07 137.11 20.166 137.434 20.346L138.118 20.742C138.598 21.018 138.838 20.874 138.838 20.31H140.98C140.98 20.934 140.86 21.462 140.62 21.894C140.392 22.314 140.098 22.608 139.738 22.776C139.39 22.932 139.024 23.004 138.64 22.992C138.256 22.98 137.902 22.878 137.578 22.686ZM141.862 24.27V33H138.946V32.514C138.25 32.958 137.452 33.18 136.552 33.18C135.352 33.18 134.332 32.742 133.492 31.866C132.64 30.978 132.214 29.898 132.214 28.626C132.214 27.354 132.64 26.274 133.492 25.386C134.332 24.51 135.352 24.072 136.552 24.072C137.452 24.072 138.25 24.294 138.946 24.738V24.27H141.862ZM137.128 30.786C137.872 30.786 138.478 30.516 138.946 29.976V27.276C138.478 26.724 137.872 26.448 137.128 26.448C136.54 26.448 136.048 26.658 135.652 27.078C135.268 27.498 135.076 28.014 135.076 28.626C135.076 29.238 135.268 29.754 135.652 30.174C136.048 30.582 136.54 30.786 137.128 30.786ZM144.779 25.368C145.679 24.504 146.819 24.072 148.199 24.072C149.579 24.072 150.707 24.504 151.583 25.368C152.471 26.22 152.915 27.306 152.915 28.626C152.915 29.958 152.471 31.068 151.583 31.956C150.707 32.832 149.579 33.27 148.199 33.27C146.807 33.27 145.667 32.832 144.779 31.956C143.891 31.068 143.447 29.958 143.447 28.626C143.447 27.306 143.891 26.22 144.779 25.368ZM146.777 30.156C147.149 30.552 147.623 30.75 148.199 30.75C148.775 30.75 149.243 30.552 149.603 30.156C149.975 29.76 150.161 29.256 150.161 28.644C150.161 28.056 149.975 27.57 149.603 27.186C149.243 26.79 148.775 26.592 148.199 26.592C147.623 26.592 147.149 26.79 146.777 27.186C146.405 27.57 146.219 28.056 146.219 28.644C146.219 29.256 146.405 29.76 146.777 30.156Z" fill="white"/>
<defs>
<filter id="filter0_d_5408_280" x="0" y="0" width="256" height="57" filterUnits="userSpaceOnUse" color-interpolation-filters="sRGB">
<feFlood flood-opacity="0" result="BackgroundImageFix"/>
<feColorMatrix in="SourceAlpha" type="matrix" values="0 0 0 0 0 0 0 0 0 0 0 0 0 0 0 0 0 0 127 0" result="hardAlpha"/>
<feOffset dy="3"/>
<feComposite in2="hardAlpha" operator="out"/>
<feColorMatrix type="matrix" values="0 0 0 0 1 0 0 0 0 0.36 0 0 0 0 0 0 0 0 1 0"/>
<feBlend mode="normal" in2="BackgroundImageFix" result="effect1_dropShadow_5408_280"/>
<feBlend mode="normal" in="SourceGraphic" in2="effect1_dropShadow_5408_280" result="shape"/>
</filter>
<linearGradient id="paint0_linear_5408_280" x1="128" y1="5" x2="128" y2="49" gradientUnits="userSpaceOnUse">
<stop offset="0.03" stop-color="#FFC700"/>
<stop offset="0.195" stop-color="#FF6B00"/>
<stop offset="0.315" stop-color="#FFF500"/>
<stop offset="0.465" stop-color="#D53300"/>
<stop offset="0.695" stop-color="#FFB800"/>
<stop offset="0.83" stop-color="#FF4D00"/>
<stop offset="1" stop-color="#FF9900"/>
</linearGradient>
<linearGradient id="paint1_linear_5408_280" x1="128" y1="5" x2="128" y2="49" gradientUnits="userSpaceOnUse">
<stop stop-color="#6C0000"/>
<stop offset="0.606666" stop-color="#730000"/>
<stop offset="1" stop-color="#FF0000"/>
</linearGradient>
<linearGradient id="paint2_linear_5408_280" x1="128" y1="5" x2="128" y2="49" gradientUnits="userSpaceOnUse">
<stop stop-color="#540000"/>
<stop offset="1" stop-color="#8A0000"/>
</linearGradient>
<linearGradient id="paint3_linear_5408_280" x1="128" y1="5" x2="128" y2="49" gradientUnits="userSpaceOnUse">
<stop stop-color="#9E4717"/>
<stop offset="0.385" stop-color="#EBC500"/>
<stop offset="0.635" stop-color="#963601"/>
<stop offset="1" stop-color="#FFF500"/>
</linearGradient>
<linearGradient id="paint4_linear_5408_280" x1="128" y1="7.20006" x2="128" y2="31.4001" gradientUnits="userSpaceOnUse">
<stop stop-color="white"/>
<stop offset="1" stop-color="white" stop-opacity="0"/>
</linearGradient>
<linearGradient id="paint5_linear_5408_280" x1="103" y1="0" x2="103" y2="6" gradientUnits="userSpaceOnUse">
<stop stop-color="white"/>
<stop offset="1" stop-color="white" stop-opacity="0"/>
</linearGradient>
</defs>
</svg>
