<svg width="156" height="57" viewBox="0 0 156 57" fill="none" xmlns="http://www.w3.org/2000/svg">
<g filter="url(#filter0_d_5413_88)">
<rect x="5" y="5" width="146" height="44" rx="22" fill="#D9D9D9"/>
<rect x="2.5" y="2.5" width="151" height="49" rx="24.5" stroke="url(#paint0_linear_5413_88)" stroke-width="5"/>
</g>
<rect x="5" y="5" width="146" height="44" rx="22" fill="url(#paint1_linear_5413_88)"/>
<rect x="5.5" y="5.5" width="145" height="43" rx="21.5" stroke="url(#paint2_linear_5413_88)"/>
<rect x="4" y="4" width="148" height="46" rx="23" stroke="url(#paint3_linear_5413_88)" stroke-width="2"/>
<g style="mix-blend-mode:overlay">
<rect x="12.7168" y="7.20007" width="130.569" height="24.2" rx="12.1" fill="url(#paint4_linear_5413_88)"/>
</g>
<g style="mix-blend-mode:overlay">
<rect width="122.26" height="6" rx="3" transform="matrix(1 0 0 -1 16.8701 47)" fill="url(#paint5_linear_5413_88)"/>
</g>
<path d="M45.5804 29.454H43.6904V33H40.6484V20.76H45.9944C47.5304 20.76 48.7604 21.15 49.6844 21.93C50.6084 22.71 51.0704 23.754 51.0704 25.062C51.0704 25.902 50.8664 26.652 50.4584 27.312C50.0504 27.972 49.4744 28.488 48.7304 28.86L51.8804 33H48.2264L45.5804 29.454ZM43.6904 26.718H45.9404C46.5524 26.718 47.0504 26.568 47.4344 26.268C47.8304 25.956 48.0284 25.554 48.0284 25.062C48.0284 24.582 47.8304 24.192 47.4344 23.892C47.0384 23.592 46.5404 23.442 45.9404 23.442H43.6904V26.718ZM61.0829 28.446C61.0829 28.914 61.0649 29.262 61.0289 29.49H54.8189C55.0949 30.426 55.7489 30.894 56.7809 30.894C57.3929 30.894 57.8369 30.684 58.1129 30.264H61.0109C60.7949 31.164 60.2969 31.878 59.5169 32.406C58.7489 32.934 57.8249 33.198 56.7449 33.198C55.3289 33.198 54.1769 32.772 53.2889 31.92C52.4129 31.08 51.9749 29.982 51.9749 28.626C51.9749 27.294 52.4009 26.202 53.2529 25.35C54.1289 24.498 55.2569 24.072 56.6369 24.072C57.9089 24.072 58.9709 24.48 59.8229 25.296C60.6629 26.1 61.0829 27.15 61.0829 28.446ZM56.6189 26.322C55.6469 26.322 55.0409 26.808 54.8009 27.78H58.3469C58.1909 26.808 57.6149 26.322 56.6189 26.322ZM64.2012 22.902C63.7212 22.902 63.3132 22.746 62.9772 22.434C62.6532 22.122 62.4912 21.732 62.4912 21.264C62.4912 20.796 62.6532 20.406 62.9772 20.094C63.3132 19.77 63.7212 19.608 64.2012 19.608C64.6692 19.608 65.0712 19.77 65.4072 20.094C65.7432 20.406 65.9112 20.796 65.9112 21.264C65.9112 21.732 65.7432 22.122 65.4072 22.434C65.0712 22.746 64.6692 22.902 64.2012 22.902ZM65.6772 24.27V33H62.7612V24.27H65.6772ZM73.0446 24C74.1486 24 75.0426 24.366 75.7266 25.098C76.4106 25.818 76.7526 26.79 76.7526 28.014V33H73.8366V28.482C73.8366 27.882 73.6926 27.426 73.4046 27.114C73.1286 26.802 72.7386 26.646 72.2346 26.646C71.6826 26.646 71.1546 26.934 70.6506 27.51V33H67.7166V24.27H70.6506V24.846C71.3946 24.282 72.1926 24 73.0446 24ZM80.1446 22.902C79.6646 22.902 79.2566 22.746 78.9206 22.434C78.5966 22.122 78.4346 21.732 78.4346 21.264C78.4346 20.796 78.5966 20.406 78.9206 20.094C79.2566 19.77 79.6646 19.608 80.1446 19.608C80.6126 19.608 81.0146 19.77 81.3506 20.094C81.6866 20.406 81.8546 20.796 81.8546 21.264C81.8546 21.732 81.6866 22.122 81.3506 22.434C81.0146 22.746 80.6126 22.902 80.1446 22.902ZM81.6206 24.27V33H78.7046V24.27H81.6206ZM88.0519 30.732C88.4959 30.732 88.8739 30.612 89.1859 30.372C89.4979 30.132 89.6899 29.814 89.7619 29.418H92.5159C92.4079 30.546 91.9339 31.458 91.0939 32.154C90.2779 32.85 89.2579 33.198 88.0339 33.198C86.6539 33.198 85.5139 32.772 84.6139 31.92C83.7139 31.08 83.2639 29.982 83.2639 28.626C83.2639 27.294 83.7139 26.208 84.6139 25.368C85.5259 24.504 86.6659 24.072 88.0339 24.072C89.2339 24.072 90.2539 24.426 91.0939 25.134C91.9339 25.83 92.4079 26.736 92.5159 27.852H89.7619C89.6899 27.456 89.4979 27.138 89.1859 26.898C88.8739 26.658 88.4959 26.538 88.0519 26.538C87.4519 26.538 86.9659 26.73 86.5939 27.114C86.2339 27.498 86.0539 28.002 86.0539 28.626C86.0539 29.25 86.2339 29.76 86.5939 30.156C86.9659 30.54 87.4519 30.732 88.0519 30.732ZM95.6133 22.902C95.1333 22.902 94.7253 22.746 94.3893 22.434C94.0653 22.122 93.9033 21.732 93.9033 21.264C93.9033 20.796 94.0653 20.406 94.3893 20.094C94.7253 19.77 95.1333 19.608 95.6133 19.608C96.0813 19.608 96.4833 19.77 96.8193 20.094C97.1553 20.406 97.3233 20.796 97.3233 21.264C97.3233 21.732 97.1553 22.122 96.8193 22.434C96.4833 22.746 96.0813 22.902 95.6133 22.902ZM97.0893 24.27V33H94.1733V24.27H97.0893ZM108.381 24.27V33H105.465V32.514C104.769 32.958 103.971 33.18 103.071 33.18C101.871 33.18 100.851 32.742 100.011 31.866C99.1587 30.978 98.7327 29.898 98.7327 28.626C98.7327 27.354 99.1587 26.274 100.011 25.386C100.851 24.51 101.871 24.072 103.071 24.072C103.971 24.072 104.769 24.294 105.465 24.738V24.27H108.381ZM103.665 30.786C104.373 30.786 104.973 30.516 105.465 29.976V27.258C104.973 26.718 104.373 26.448 103.665 26.448C103.077 26.448 102.585 26.658 102.189 27.078C101.793 27.498 101.595 28.014 101.595 28.626C101.595 29.238 101.793 29.754 102.189 30.174C102.585 30.582 103.077 30.786 103.665 30.786ZM116.301 24.126V26.898C114.993 26.946 113.991 27.312 113.295 27.996V33H110.361V24.27H113.295V25.206C114.135 24.486 115.137 24.126 116.301 24.126Z" fill="white"/>
<defs>
<filter id="filter0_d_5413_88" x="0" y="0" width="156" height="57" filterUnits="userSpaceOnUse" color-interpolation-filters="sRGB">
<feFlood flood-opacity="0" result="BackgroundImageFix"/>
<feColorMatrix in="SourceAlpha" type="matrix" values="0 0 0 0 0 0 0 0 0 0 0 0 0 0 0 0 0 0 127 0" result="hardAlpha"/>
<feOffset dy="3"/>
<feComposite in2="hardAlpha" operator="out"/>
<feColorMatrix type="matrix" values="0 0 0 0 1 0 0 0 0 0.36 0 0 0 0 0 0 0 0 1 0"/>
<feBlend mode="normal" in2="BackgroundImageFix" result="effect1_dropShadow_5413_88"/>
<feBlend mode="normal" in="SourceGraphic" in2="effect1_dropShadow_5413_88" result="shape"/>
</filter>
<linearGradient id="paint0_linear_5413_88" x1="78" y1="5" x2="78" y2="49" gradientUnits="userSpaceOnUse">
<stop offset="0.03" stop-color="#FFC700"/>
<stop offset="0.195" stop-color="#FF6B00"/>
<stop offset="0.315" stop-color="#FFF500"/>
<stop offset="0.465" stop-color="#D53300"/>
<stop offset="0.695" stop-color="#FFB800"/>
<stop offset="0.83" stop-color="#FF4D00"/>
<stop offset="1" stop-color="#FF9900"/>
</linearGradient>
<linearGradient id="paint1_linear_5413_88" x1="78" y1="5" x2="78" y2="49" gradientUnits="userSpaceOnUse">
<stop stop-color="#6C0000"/>
<stop offset="0.606666" stop-color="#730000"/>
<stop offset="1" stop-color="#FF0000"/>
</linearGradient>
<linearGradient id="paint2_linear_5413_88" x1="78" y1="5" x2="78" y2="49" gradientUnits="userSpaceOnUse">
<stop stop-color="#540000"/>
<stop offset="1" stop-color="#8A0000"/>
</linearGradient>
<linearGradient id="paint3_linear_5413_88" x1="78" y1="5" x2="78" y2="49" gradientUnits="userSpaceOnUse">
<stop stop-color="#9E4717"/>
<stop offset="0.385" stop-color="#EBC500"/>
<stop offset="0.635" stop-color="#963601"/>
<stop offset="1" stop-color="#FFF500"/>
</linearGradient>
<linearGradient id="paint4_linear_5413_88" x1="78.0014" y1="7.20007" x2="78.0014" y2="31.4001" gradientUnits="userSpaceOnUse">
<stop stop-color="white"/>
<stop offset="1" stop-color="white" stop-opacity="0"/>
</linearGradient>
<linearGradient id="paint5_linear_5413_88" x1="61.1301" y1="0" x2="61.1301" y2="6" gradientUnits="userSpaceOnUse">
<stop stop-color="white"/>
<stop offset="1" stop-color="white" stop-opacity="0"/>
</linearGradient>
</defs>
</svg>
